<mxfile host="Electron" modified="2024-07-13T04:42:37.510Z" agent="Mozilla/5.0 (Windows NT 10.0; Win64; x64) AppleWebKit/537.36 (KHTML, like Gecko) draw.io/24.6.1 Chrome/124.0.6367.207 Electron/30.0.6 Safari/537.36" etag="haSoSGwhVg7OUDxazOBe" version="24.6.1" type="device">
  <diagram name="Page-1" id="e9rOLZdjZyUwD297O_5J">
    <mxGraphModel dx="1836" dy="206" grid="0" gridSize="10" guides="1" tooltips="1" connect="1" arrows="1" fold="1" page="0" pageScale="1" pageWidth="850" pageHeight="1100" math="0" shadow="0">
      <root>
        <mxCell id="0" />
        <mxCell id="1" parent="0" />
        <mxCell id="Rusrf8j5u7mwS3oY2m-7-3" style="edgeStyle=orthogonalEdgeStyle;rounded=0;orthogonalLoop=1;jettySize=auto;html=1;startArrow=classic;startFill=1;" edge="1" parent="1" source="Rusrf8j5u7mwS3oY2m-7-4" target="Rusrf8j5u7mwS3oY2m-7-8">
          <mxGeometry relative="1" as="geometry" />
        </mxCell>
        <mxCell id="Rusrf8j5u7mwS3oY2m-7-4" value="POS App&lt;br&gt;(Stand Operator)&lt;div&gt;&lt;br/&gt;&lt;/div&gt;" style="rounded=0;whiteSpace=wrap;html=1;" vertex="1" parent="1">
          <mxGeometry x="-591" y="793" width="120" height="60" as="geometry" />
        </mxCell>
        <mxCell id="Rusrf8j5u7mwS3oY2m-7-5" style="edgeStyle=orthogonalEdgeStyle;rounded=0;orthogonalLoop=1;jettySize=auto;html=1;startArrow=classic;startFill=1;" edge="1" parent="1" source="Rusrf8j5u7mwS3oY2m-7-6">
          <mxGeometry relative="1" as="geometry">
            <mxPoint x="-410.79998779296875" y="967.2000427246094" as="targetPoint" />
            <Array as="points">
              <mxPoint x="-291" y="911" />
              <mxPoint x="-411" y="911" />
            </Array>
          </mxGeometry>
        </mxCell>
        <mxCell id="Rusrf8j5u7mwS3oY2m-7-6" value="Management App&lt;br&gt;(Manager)&lt;div&gt;&lt;br&gt;&lt;/div&gt;" style="rounded=0;whiteSpace=wrap;html=1;" vertex="1" parent="1">
          <mxGeometry x="-351" y="793" width="120" height="60" as="geometry" />
        </mxCell>
        <mxCell id="Rusrf8j5u7mwS3oY2m-7-7" style="edgeStyle=orthogonalEdgeStyle;rounded=0;orthogonalLoop=1;jettySize=auto;html=1;" edge="1" parent="1" source="Rusrf8j5u7mwS3oY2m-7-8" target="Rusrf8j5u7mwS3oY2m-7-11">
          <mxGeometry relative="1" as="geometry" />
        </mxCell>
        <mxCell id="Rusrf8j5u7mwS3oY2m-7-8" value="API Gateway" style="rounded=0;whiteSpace=wrap;html=1;" vertex="1" parent="1">
          <mxGeometry x="-471" y="968" width="120" height="60" as="geometry" />
        </mxCell>
        <mxCell id="Rusrf8j5u7mwS3oY2m-7-9" style="edgeStyle=orthogonalEdgeStyle;rounded=0;orthogonalLoop=1;jettySize=auto;html=1;entryX=0.5;entryY=0;entryDx=0;entryDy=0;startArrow=none;startFill=0;" edge="1" parent="1" source="Rusrf8j5u7mwS3oY2m-7-11" target="Rusrf8j5u7mwS3oY2m-7-12">
          <mxGeometry relative="1" as="geometry" />
        </mxCell>
        <mxCell id="Rusrf8j5u7mwS3oY2m-7-10" style="edgeStyle=orthogonalEdgeStyle;rounded=0;orthogonalLoop=1;jettySize=auto;html=1;entryX=0.5;entryY=0;entryDx=0;entryDy=0;exitX=0.5;exitY=1;exitDx=0;exitDy=0;" edge="1" parent="1" source="Rusrf8j5u7mwS3oY2m-7-11" target="Rusrf8j5u7mwS3oY2m-7-13">
          <mxGeometry relative="1" as="geometry">
            <Array as="points">
              <mxPoint x="-411" y="1181" />
              <mxPoint x="-171" y="1181" />
            </Array>
          </mxGeometry>
        </mxCell>
        <mxCell id="Rusrf8j5u7mwS3oY2m-7-11" value="Application &lt;br&gt;Backend" style="rounded=0;whiteSpace=wrap;html=1;" vertex="1" parent="1">
          <mxGeometry x="-471" y="1089" width="120" height="60" as="geometry" />
        </mxCell>
        <mxCell id="Rusrf8j5u7mwS3oY2m-7-12" value="Database" style="rounded=0;whiteSpace=wrap;html=1;" vertex="1" parent="1">
          <mxGeometry x="-471" y="1212" width="120" height="60" as="geometry" />
        </mxCell>
        <mxCell id="Rusrf8j5u7mwS3oY2m-7-13" value="External Payment System" style="rounded=0;whiteSpace=wrap;html=1;fillColor=#DEDEDE;gradientColor=none;strokeColor=#666666;gradientDirection=radial;" vertex="1" parent="1">
          <mxGeometry x="-231" y="1212" width="120" height="60" as="geometry" />
        </mxCell>
      </root>
    </mxGraphModel>
  </diagram>
</mxfile>
